<mxfile host="app.diagrams.net" agent="Mozilla/5.0 (Macintosh; Intel Mac OS X 10_15_7) AppleWebKit/537.36 (KHTML, like Gecko) Chrome/133.0.0.0 Safari/537.36" version="26.0.13">
  <diagram name="Page-1" id="uge8Uq6DLkfK-eYtB3qo">
    <mxGraphModel dx="1026" dy="684" grid="1" gridSize="10" guides="1" tooltips="1" connect="1" arrows="1" fold="1" page="1" pageScale="1" pageWidth="3300" pageHeight="4681" math="0" shadow="0">
      <root>
        <mxCell id="0" />
        <mxCell id="1" parent="0" />
        <mxCell id="JxBHjFyv43aqF_TuD2n9-13" style="edgeStyle=orthogonalEdgeStyle;rounded=0;orthogonalLoop=1;jettySize=auto;html=1;" edge="1" parent="1" source="JxBHjFyv43aqF_TuD2n9-1" target="JxBHjFyv43aqF_TuD2n9-3">
          <mxGeometry relative="1" as="geometry" />
        </mxCell>
        <mxCell id="JxBHjFyv43aqF_TuD2n9-1" value="OutSystems" style="sketch=0;outlineConnect=0;fontColor=#232F3E;gradientColor=none;fillColor=#232F3D;strokeColor=none;dashed=0;verticalLabelPosition=bottom;verticalAlign=top;align=center;html=1;fontSize=12;fontStyle=0;aspect=fixed;pointerEvents=1;shape=mxgraph.aws4.servers;" vertex="1" parent="1">
          <mxGeometry x="40" y="160" width="40" height="40" as="geometry" />
        </mxCell>
        <mxCell id="JxBHjFyv43aqF_TuD2n9-9" style="edgeStyle=orthogonalEdgeStyle;rounded=0;orthogonalLoop=1;jettySize=auto;html=1;" edge="1" parent="1" source="JxBHjFyv43aqF_TuD2n9-3" target="JxBHjFyv43aqF_TuD2n9-6">
          <mxGeometry relative="1" as="geometry" />
        </mxCell>
        <mxCell id="JxBHjFyv43aqF_TuD2n9-3" value="Cloudflare" style="sketch=0;outlineConnect=0;fontColor=#232F3E;gradientColor=none;fillColor=#232F3D;strokeColor=none;dashed=0;verticalLabelPosition=bottom;verticalAlign=top;align=center;html=1;fontSize=12;fontStyle=0;aspect=fixed;pointerEvents=1;shape=mxgraph.aws4.internet;" vertex="1" parent="1">
          <mxGeometry x="120" y="167.5" width="40.63" height="25" as="geometry" />
        </mxCell>
        <mxCell id="JxBHjFyv43aqF_TuD2n9-7" value="Docker Host" style="fillColor=none;strokeColor=#5A6C86;dashed=1;verticalAlign=top;fontStyle=0;fontColor=#5A6C86;whiteSpace=wrap;html=1;movable=0;resizable=0;rotatable=0;deletable=0;editable=0;locked=1;connectable=0;" vertex="1" parent="1">
          <mxGeometry x="200" y="40" width="600" height="600" as="geometry" />
        </mxCell>
        <mxCell id="JxBHjFyv43aqF_TuD2n9-12" style="edgeStyle=orthogonalEdgeStyle;rounded=0;orthogonalLoop=1;jettySize=auto;html=1;" edge="1" parent="1" source="JxBHjFyv43aqF_TuD2n9-6" target="JxBHjFyv43aqF_TuD2n9-11">
          <mxGeometry relative="1" as="geometry" />
        </mxCell>
        <mxCell id="JxBHjFyv43aqF_TuD2n9-6" value="Cloudflare&lt;div&gt;Connector&lt;/div&gt;" style="sketch=0;outlineConnect=0;fontColor=#232F3E;gradientColor=none;fillColor=#232F3D;strokeColor=none;dashed=0;verticalLabelPosition=bottom;verticalAlign=top;align=center;html=1;fontSize=12;fontStyle=0;aspect=fixed;pointerEvents=1;shape=mxgraph.aws4.internet;" vertex="1" parent="1">
          <mxGeometry x="240" y="167.5" width="40.63" height="25" as="geometry" />
        </mxCell>
        <mxCell id="JxBHjFyv43aqF_TuD2n9-10" value="Docker Engine" style="fillColor=none;strokeColor=#5A6C86;dashed=1;verticalAlign=top;fontStyle=0;fontColor=#5A6C86;whiteSpace=wrap;html=1;movable=0;resizable=0;rotatable=0;deletable=0;editable=0;locked=1;connectable=0;" vertex="1" parent="1">
          <mxGeometry x="320" y="80" width="440" height="520" as="geometry" />
        </mxCell>
        <mxCell id="JxBHjFyv43aqF_TuD2n9-66" style="edgeStyle=orthogonalEdgeStyle;rounded=0;orthogonalLoop=1;jettySize=auto;html=1;" edge="1" parent="1" source="JxBHjFyv43aqF_TuD2n9-11">
          <mxGeometry relative="1" as="geometry">
            <mxPoint x="440" y="180" as="targetPoint" />
          </mxGeometry>
        </mxCell>
        <mxCell id="JxBHjFyv43aqF_TuD2n9-11" value="Kong" style="sketch=0;outlineConnect=0;fontColor=#232F3E;gradientColor=none;fillColor=#232F3D;strokeColor=none;dashed=0;verticalLabelPosition=bottom;verticalAlign=top;align=center;html=1;fontSize=12;fontStyle=0;aspect=fixed;pointerEvents=1;shape=mxgraph.aws4.generic_application;" vertex="1" parent="1">
          <mxGeometry x="360" y="160" width="40" height="40" as="geometry" />
        </mxCell>
        <mxCell id="JxBHjFyv43aqF_TuD2n9-45" value="Backend Microservices" style="fillColor=none;strokeColor=#5A6C86;dashed=1;verticalAlign=top;fontStyle=0;fontColor=#5A6C86;whiteSpace=wrap;html=1;movable=0;resizable=0;rotatable=0;deletable=0;editable=0;locked=1;connectable=0;" vertex="1" parent="1">
          <mxGeometry x="440" y="120" width="280" height="440" as="geometry" />
        </mxCell>
        <mxCell id="JxBHjFyv43aqF_TuD2n9-60" style="edgeStyle=orthogonalEdgeStyle;rounded=0;orthogonalLoop=1;jettySize=auto;html=1;" edge="1" parent="1" source="JxBHjFyv43aqF_TuD2n9-14" target="JxBHjFyv43aqF_TuD2n9-54">
          <mxGeometry relative="1" as="geometry" />
        </mxCell>
        <mxCell id="JxBHjFyv43aqF_TuD2n9-14" value="Order&lt;div&gt;Service&lt;/div&gt;" style="sketch=0;outlineConnect=0;fontColor=#232F3E;gradientColor=none;fillColor=#232F3D;strokeColor=none;dashed=0;verticalLabelPosition=bottom;verticalAlign=top;align=center;html=1;fontSize=12;fontStyle=0;aspect=fixed;pointerEvents=1;shape=mxgraph.aws4.generic_application;" vertex="1" parent="1">
          <mxGeometry x="480" y="160" width="40" height="40" as="geometry" />
        </mxCell>
        <mxCell id="JxBHjFyv43aqF_TuD2n9-59" style="edgeStyle=orthogonalEdgeStyle;rounded=0;orthogonalLoop=1;jettySize=auto;html=1;" edge="1" parent="1" source="JxBHjFyv43aqF_TuD2n9-16" target="JxBHjFyv43aqF_TuD2n9-55">
          <mxGeometry relative="1" as="geometry" />
        </mxCell>
        <mxCell id="JxBHjFyv43aqF_TuD2n9-16" value="Driver&lt;div&gt;Service&lt;/div&gt;" style="sketch=0;outlineConnect=0;fontColor=#232F3E;gradientColor=none;fillColor=#232F3D;strokeColor=none;dashed=0;verticalLabelPosition=bottom;verticalAlign=top;align=center;html=1;fontSize=12;fontStyle=0;aspect=fixed;pointerEvents=1;shape=mxgraph.aws4.generic_application;" vertex="1" parent="1">
          <mxGeometry x="480" y="240" width="40" height="40" as="geometry" />
        </mxCell>
        <mxCell id="JxBHjFyv43aqF_TuD2n9-52" style="edgeStyle=orthogonalEdgeStyle;rounded=0;orthogonalLoop=1;jettySize=auto;html=1;" edge="1" parent="1" source="JxBHjFyv43aqF_TuD2n9-17" target="JxBHjFyv43aqF_TuD2n9-51">
          <mxGeometry relative="1" as="geometry" />
        </mxCell>
        <mxCell id="JxBHjFyv43aqF_TuD2n9-17" value="Notification&lt;div&gt;Service&lt;/div&gt;" style="sketch=0;outlineConnect=0;fontColor=#232F3E;gradientColor=none;fillColor=#232F3D;strokeColor=none;dashed=0;verticalLabelPosition=bottom;verticalAlign=top;align=center;html=1;fontSize=12;fontStyle=0;aspect=fixed;pointerEvents=1;shape=mxgraph.aws4.generic_application;" vertex="1" parent="1">
          <mxGeometry x="480" y="320" width="40" height="40" as="geometry" />
        </mxCell>
        <mxCell id="JxBHjFyv43aqF_TuD2n9-53" style="edgeStyle=orthogonalEdgeStyle;rounded=0;orthogonalLoop=1;jettySize=auto;html=1;" edge="1" parent="1" source="JxBHjFyv43aqF_TuD2n9-18" target="JxBHjFyv43aqF_TuD2n9-50">
          <mxGeometry relative="1" as="geometry" />
        </mxCell>
        <mxCell id="JxBHjFyv43aqF_TuD2n9-18" value="Invoicing&lt;div&gt;Service&lt;/div&gt;" style="sketch=0;outlineConnect=0;fontColor=#232F3E;gradientColor=none;fillColor=#232F3D;strokeColor=none;dashed=0;verticalLabelPosition=bottom;verticalAlign=top;align=center;html=1;fontSize=12;fontStyle=0;aspect=fixed;pointerEvents=1;shape=mxgraph.aws4.generic_application;" vertex="1" parent="1">
          <mxGeometry x="480" y="400" width="40" height="40" as="geometry" />
        </mxCell>
        <mxCell id="JxBHjFyv43aqF_TuD2n9-42" style="edgeStyle=orthogonalEdgeStyle;rounded=0;orthogonalLoop=1;jettySize=auto;html=1;" edge="1" parent="1" target="JxBHjFyv43aqF_TuD2n9-41">
          <mxGeometry relative="1" as="geometry">
            <mxPoint x="460" y="160" as="sourcePoint" />
          </mxGeometry>
        </mxCell>
        <mxCell id="JxBHjFyv43aqF_TuD2n9-62" style="edgeStyle=orthogonalEdgeStyle;rounded=0;orthogonalLoop=1;jettySize=auto;html=1;" edge="1" parent="1" source="JxBHjFyv43aqF_TuD2n9-46" target="JxBHjFyv43aqF_TuD2n9-61">
          <mxGeometry relative="1" as="geometry" />
        </mxCell>
        <mxCell id="JxBHjFyv43aqF_TuD2n9-46" value="Chatbot" style="sketch=0;outlineConnect=0;fontColor=#232F3E;gradientColor=none;fillColor=#232F3D;strokeColor=none;dashed=0;verticalLabelPosition=bottom;verticalAlign=top;align=center;html=1;fontSize=12;fontStyle=0;aspect=fixed;pointerEvents=1;shape=mxgraph.aws4.generic_application;" vertex="1" parent="1">
          <mxGeometry x="640" y="160" width="40" height="40" as="geometry" />
        </mxCell>
        <mxCell id="JxBHjFyv43aqF_TuD2n9-49" style="edgeStyle=orthogonalEdgeStyle;rounded=0;orthogonalLoop=1;jettySize=auto;html=1;" edge="1" parent="1" source="JxBHjFyv43aqF_TuD2n9-47" target="JxBHjFyv43aqF_TuD2n9-48">
          <mxGeometry relative="1" as="geometry" />
        </mxCell>
        <mxCell id="JxBHjFyv43aqF_TuD2n9-47" value="Auth&lt;div&gt;Service&lt;/div&gt;" style="sketch=0;outlineConnect=0;fontColor=#232F3E;gradientColor=none;fillColor=#232F3D;strokeColor=none;dashed=0;verticalLabelPosition=bottom;verticalAlign=top;align=center;html=1;fontSize=12;fontStyle=0;aspect=fixed;pointerEvents=1;shape=mxgraph.aws4.generic_application;" vertex="1" parent="1">
          <mxGeometry x="480" y="480" width="40" height="40" as="geometry" />
        </mxCell>
        <mxCell id="JxBHjFyv43aqF_TuD2n9-48" value="Auth&lt;div&gt;DB&lt;/div&gt;" style="sketch=0;outlineConnect=0;fontColor=#232F3E;gradientColor=none;fillColor=#232F3D;strokeColor=none;dashed=0;verticalLabelPosition=bottom;verticalAlign=top;align=center;html=1;fontSize=12;fontStyle=0;aspect=fixed;pointerEvents=1;shape=mxgraph.aws4.generic_database;" vertex="1" parent="1">
          <mxGeometry x="564.87" y="480" width="30.26" height="40" as="geometry" />
        </mxCell>
        <mxCell id="JxBHjFyv43aqF_TuD2n9-50" value="Invoice&lt;div&gt;DB&lt;/div&gt;" style="sketch=0;outlineConnect=0;fontColor=#232F3E;gradientColor=none;fillColor=#232F3D;strokeColor=none;dashed=0;verticalLabelPosition=bottom;verticalAlign=top;align=center;html=1;fontSize=12;fontStyle=0;aspect=fixed;pointerEvents=1;shape=mxgraph.aws4.generic_database;" vertex="1" parent="1">
          <mxGeometry x="564.87" y="400" width="30.26" height="40" as="geometry" />
        </mxCell>
        <mxCell id="JxBHjFyv43aqF_TuD2n9-51" value="Notification&lt;div&gt;DB&lt;/div&gt;" style="sketch=0;outlineConnect=0;fontColor=#232F3E;gradientColor=none;fillColor=#232F3D;strokeColor=none;dashed=0;verticalLabelPosition=bottom;verticalAlign=top;align=center;html=1;fontSize=12;fontStyle=0;aspect=fixed;pointerEvents=1;shape=mxgraph.aws4.generic_database;" vertex="1" parent="1">
          <mxGeometry x="564.87" y="320" width="30.26" height="40" as="geometry" />
        </mxCell>
        <mxCell id="JxBHjFyv43aqF_TuD2n9-54" value="Order&lt;div&gt;DB&lt;/div&gt;" style="sketch=0;outlineConnect=0;fontColor=#232F3E;gradientColor=none;fillColor=#232F3D;strokeColor=none;dashed=0;verticalLabelPosition=bottom;verticalAlign=top;align=center;html=1;fontSize=12;fontStyle=0;aspect=fixed;pointerEvents=1;shape=mxgraph.aws4.generic_database;" vertex="1" parent="1">
          <mxGeometry x="564.87" y="160" width="30.26" height="40" as="geometry" />
        </mxCell>
        <mxCell id="JxBHjFyv43aqF_TuD2n9-55" value="Driver&lt;div&gt;DB&lt;/div&gt;" style="sketch=0;outlineConnect=0;fontColor=#232F3E;gradientColor=none;fillColor=#232F3D;strokeColor=none;dashed=0;verticalLabelPosition=bottom;verticalAlign=top;align=center;html=1;fontSize=12;fontStyle=0;aspect=fixed;pointerEvents=1;shape=mxgraph.aws4.generic_database;" vertex="1" parent="1">
          <mxGeometry x="564.87" y="240" width="30.26" height="40" as="geometry" />
        </mxCell>
        <mxCell id="JxBHjFyv43aqF_TuD2n9-61" value="Chat&lt;div&gt;DB&lt;/div&gt;" style="sketch=0;outlineConnect=0;fontColor=#232F3E;gradientColor=none;fillColor=#232F3D;strokeColor=none;dashed=0;verticalLabelPosition=bottom;verticalAlign=top;align=center;html=1;fontSize=12;fontStyle=0;aspect=fixed;pointerEvents=1;shape=mxgraph.aws4.generic_database;" vertex="1" parent="1">
          <mxGeometry x="644.87" y="240" width="30.26" height="40" as="geometry" />
        </mxCell>
        <mxCell id="JxBHjFyv43aqF_TuD2n9-63" value="Temporal&lt;div&gt;Orchestrator&lt;/div&gt;" style="sketch=0;outlineConnect=0;fontColor=#232F3E;gradientColor=none;fillColor=#232F3D;strokeColor=none;dashed=0;verticalLabelPosition=bottom;verticalAlign=top;align=center;html=1;fontSize=12;fontStyle=0;aspect=fixed;pointerEvents=1;shape=mxgraph.aws4.generic_application;" vertex="1" parent="1">
          <mxGeometry x="640" y="360" width="40" height="40" as="geometry" />
        </mxCell>
        <mxCell id="JxBHjFyv43aqF_TuD2n9-64" value="Temporal&lt;div&gt;Worker&lt;/div&gt;" style="sketch=0;outlineConnect=0;fontColor=#232F3E;gradientColor=none;fillColor=#232F3D;strokeColor=none;dashed=0;verticalLabelPosition=bottom;verticalAlign=top;align=center;html=1;fontSize=12;fontStyle=0;aspect=fixed;pointerEvents=1;shape=mxgraph.aws4.generic_application;" vertex="1" parent="1">
          <mxGeometry x="640" y="480" width="40" height="40" as="geometry" />
        </mxCell>
      </root>
    </mxGraphModel>
  </diagram>
</mxfile>
